<?xml version="1.0" standalone="no"?>
<!DOCTYPE svg PUBLIC "-//W3C//DTD SVG 20010904//EN"
 "http://www.w3.org/TR/2001/REC-SVG-20010904/DTD/svg10.dtd">
<svg version="1.0" xmlns="http://www.w3.org/2000/svg"
 width="469.000000pt" height="469.000000pt" viewBox="0 0 469.000000 469.000000"
 preserveAspectRatio="xMidYMid meet">
<metadata>
Created by potrace 1.11, written by Peter Selinger 2001-2013
</metadata>
<g transform="translate(0.000000,469.000000) scale(0.100000,-0.100000)"
fill="#000000" stroke="none">
<path d="M2159 4686 c-2 -2 -38 -7 -79 -11 -41 -4 -84 -9 -95 -11 -11 -2 -55
-11 -98 -19 -356 -68 -696 -224 -991 -455 -56 -43 -115 -93 -131 -110 l-29
-30 63 -123 c35 -67 67 -126 71 -130 5 -5 18 2 31 15 64 64 206 178 305 244
256 171 568 289 874 330 78 11 442 13 510 3 566 -82 1015 -333 1366 -764 209
-257 376 -633 420 -950 3 -27 9 -59 11 -70 3 -11 6 -103 9 -205 4 -192 -4
-287 -36 -450 -6 -30 -13 -66 -16 -80 -3 -14 -27 -90 -54 -170 -45 -135 -47
-146 -32 -161 9 -9 28 -29 42 -45 96 -112 143 -164 149 -164 13 0 120 266 148
370 34 123 57 231 68 310 4 25 8 59 11 75 3 17 6 120 8 230 4 233 -10 380 -58
590 -22 96 -74 251 -123 365 -236 550 -675 990 -1233 1233 -123 53 -356 125
-460 142 -54 9 -141 23 -180 30 -38 7 -465 16 -471 11z"/>
<path d="M570 3882 c-79 -94 -105 -127 -149 -191 l-50 -74 58 -111 c56 -106
102 -194 269 -516 41 -80 101 -194 132 -255 32 -60 88 -168 125 -240 141 -271
199 -383 250 -480 29 -55 83 -158 120 -230 37 -71 69 -132 71 -134 2 -2 65 -4
140 -5 127 -1 138 0 149 19 7 11 59 110 115 220 56 110 158 310 227 445 69
135 177 346 241 470 63 124 119 231 125 238 5 7 7 15 4 18 -10 10 -357 8 -367
-2 -5 -5 -48 -85 -95 -179 -274 -537 -398 -776 -400 -773 -1 2 -41 80 -90 173
-48 94 -102 197 -120 230 -18 33 -67 128 -110 210 -43 83 -101 195 -130 250
-53 102 -134 257 -251 483 -37 70 -83 159 -104 197 -21 39 -59 112 -85 163
-26 50 -51 92 -54 92 -4 0 -13 -8 -21 -18z"/>
<path d="M227 3358 c-63 -130 -113 -271 -153 -423 -53 -208 -68 -332 -68 -570
0 -209 7 -305 30 -419 2 -11 7 -37 10 -56 10 -66 70 -279 93 -335 5 -11 15
-36 22 -55 26 -71 114 -248 172 -345 328 -544 882 -944 1497 -1078 199 -44
288 -52 540 -51 259 1 375 17 624 86 279 77 553 215 787 398 112 87 221 188
217 201 -4 11 -142 170 -167 193 -19 18 -21 17 -78 -37 -218 -208 -502 -375
-799 -466 -112 -35 -118 -36 -225 -56 -71 -13 -96 -17 -204 -30 -49 -6 -294
-6 -355 0 -788 76 -1443 562 -1735 1285 -45 111 -106 327 -119 420 -4 25 -10
68 -14 95 -3 28 -7 133 -7 235 0 190 6 267 30 390 3 14 7 34 9 45 10 54 39
152 72 244 l36 102 -77 152 c-43 84 -81 156 -85 160 -4 5 -28 -33 -53 -85z"/>
<path d="M2572 3060 c-30 -5 -37 -13 -91 -120 -189 -375 -561 -1109 -602
-1189 -27 -52 -47 -97 -44 -99 2 -3 84 -5 181 -5 l177 -1 89 175 c49 96 173
338 275 539 102 201 187 366 188 368 2 2 200 3 441 3 361 -1 441 -4 459 -15
46 -30 57 -164 21 -235 -9 -17 -18 -32 -19 -33 -1 -1 -204 -5 -451 -8 l-449
-5 94 -105 c52 -58 98 -110 104 -116 17 -18 136 -151 320 -359 98 -110 213
-238 255 -285 43 -47 95 -105 116 -130 22 -25 56 -64 75 -85 20 -22 99 -110
174 -195 240 -269 259 -290 266 -290 8 0 100 121 158 208 27 40 39 67 34 76
-4 8 -33 41 -63 73 -46 50 -100 110 -200 223 -8 9 -43 48 -77 86 -34 38 -70
78 -80 90 -10 11 -50 56 -89 100 -39 43 -114 126 -165 184 -128 144 -152 171
-166 185 -9 10 11 14 100 18 130 6 168 17 234 66 65 49 117 121 149 206 46
120 42 307 -9 427 -54 127 -168 225 -283 244 -48 7 -1074 11 -1122 4z"/>
</g>
</svg>
